<svg width="160" height="26" viewBox="0 0 160 26" fill="none" xmlns="http://www.w3.org/2000/svg">
<path d="M0.335705 10.1246V0.521484H6.12873L12.9595 14.208H15.717L19.8185 5.9872H25.6334V25.1716H22.8893V8.73439H21.4965L17.4025 16.9398H11.2664L4.44263 3.26863H3.08428V19.69H0.333252C0.333252 19.69 0.335419 13.2039 0.335705 10.1246Z" fill="black"/>
<path d="M40.0721 14.2153L53.7603 14.208L59.2356 25.1716H56.1742L52.0694 16.9406L38.7065 16.9412L40.0721 14.2153ZM31.2231 19.69L40.8015 0.521484H46.9197L52.4038 11.4932L41.4425 11.488C41.4425 11.488 42.1203 10.1182 42.368 9.61967C42.4907 9.37694 42.8097 8.73345 42.8097 8.73345L47.951 8.73027L45.2013 3.263H42.4704L34.275 19.69H31.2231Z" fill="black"/>
<path d="M150.978 14.2045L137.29 14.1973L131.815 25.1609H134.876L138.981 16.9298L152.344 16.9304L150.978 14.2045ZM159.827 19.6792L150.249 0.510742H144.131L138.647 11.4824L149.608 11.4773C149.608 11.4773 148.93 10.1074 148.683 9.60892C148.56 9.3662 148.241 8.72271 148.241 8.72271L143.1 8.71953L145.849 3.25226H148.58L156.776 19.6792H159.827Z" fill="black"/>
<path d="M94.3024 8.8345C95.5762 9.70118 98.2682 11.5106 98.2682 11.5106H109.476L115.757 15.7808C115.757 15.7808 115.754 15.845 115.626 16.3045C114.252 21.2408 109.86 25.1334 105.077 25.6196C99.5776 26.177 94.6799 23.571 92.2508 18.7919C92.1293 18.5518 92.0285 18.3008 91.8921 17.9954C92.6343 17.4884 93.3586 16.9953 94.1028 16.4884C96.1939 20.9532 99.5707 23.32 104.421 22.9148C108.207 22.5986 110.877 20.4383 112.571 16.9034C111.317 16.0446 108.649 14.2431 108.649 14.2431H97.4558C97.4558 14.2431 93.0681 11.2883 91.1885 10.0125C92.0976 5.22053 96.3846 0.669726 102.046 0.0757987C108.901 -0.644622 113.522 3.91113 114.961 7.76325C114.255 8.24749 113.531 8.7416 112.782 9.25548C110.833 5.04068 107.714 2.64224 103.12 2.7796C99.036 2.90214 96.1543 5.07032 94.3024 8.8345Z" fill="black"/>
<path d="M85.6969 16.9761H80.7745V14.2426H83.088C83.088 12.1209 82.919 10.0693 81.7598 8.29249C79.6796 5.10742 76.8186 3.27425 72.9912 3.24954C71.2243 3.23867 66.9017 3.24954 66.9017 3.24954C66.9304 5.37918 66.9156 11.4449 66.9156 11.4449H61.6196V8.77771H64.2365V0.521035C64.2365 0.521035 70.6461 0.478541 73.6148 0.558588C79.4878 0.715716 84.7344 5.36337 85.5714 11.2671C85.7671 12.6447 85.6969 15.0204 85.6969 16.9761Z" fill="black"/>
<path d="M64.3293 14.2451C66.4303 14.2451 70.824 14.2432 70.824 14.2432L86.8986 25.172H82.0612L70.0522 16.9766H66.9501V19.6725H64.3293V14.2451Z" fill="black"/>
<path d="M123.787 25.1718C125.524 25.1718 126.932 23.7638 126.932 22.0268C126.932 20.2899 125.524 18.8818 123.787 18.8818C122.05 18.8818 120.642 20.2899 120.642 22.0268C120.642 23.7638 122.05 25.1718 123.787 25.1718Z" fill="#9B1B08"/>
</svg>
