<svg width="1116" height="1" viewBox="0 0 1116 1" fill="none" xmlns="http://www.w3.org/2000/svg">
<path d="M3.98571 1C4.26186 1 4.48571 0.776142 4.48571 0.5C4.48571 0.223858 4.26186 0 3.98571 0V1ZM11.9571 0C11.681 0 11.4571 0.223858 11.4571 0.5C11.4571 0.776142 11.681 1 11.9571 1V0ZM19.9286 1C20.2047 1 20.4286 0.776142 20.4286 0.5C20.4286 0.223858 20.2047 0 19.9286 0V1ZM27.9 0C27.6239 0 27.4 0.223858 27.4 0.5C27.4 0.776142 27.6239 1 27.9 1V0ZM35.8714 1C36.1476 1 36.3714 0.776142 36.3714 0.5C36.3714 0.223858 36.1476 0 35.8714 0V1ZM43.8429 0C43.5667 0 43.3429 0.223858 43.3429 0.5C43.3429 0.776142 43.5667 1 43.8429 1V0ZM51.8143 1C52.0904 1 52.3143 0.776142 52.3143 0.5C52.3143 0.223858 52.0904 0 51.8143 0V1ZM59.7857 0C59.5096 0 59.2857 0.223858 59.2857 0.5C59.2857 0.776142 59.5096 1 59.7857 1V0ZM67.7571 1C68.0333 1 68.2571 0.776142 68.2571 0.5C68.2571 0.223858 68.0333 0 67.7571 0V1ZM75.7286 0C75.4524 0 75.2286 0.223858 75.2286 0.5C75.2286 0.776142 75.4524 1 75.7286 1V0ZM83.7 1C83.9761 1 84.2 0.776142 84.2 0.5C84.2 0.223858 83.9761 0 83.7 0V1ZM91.6714 0C91.3953 0 91.1714 0.223858 91.1714 0.5C91.1714 0.776142 91.3953 1 91.6714 1V0ZM99.6429 1C99.919 1 100.143 0.776142 100.143 0.5C100.143 0.223858 99.919 0 99.6429 0V1ZM107.614 0C107.338 0 107.114 0.223858 107.114 0.5C107.114 0.776142 107.338 1 107.614 1V0ZM115.586 1C115.862 1 116.086 0.776142 116.086 0.5C116.086 0.223858 115.862 0 115.586 0V1ZM123.557 0C123.281 0 123.057 0.223858 123.057 0.5C123.057 0.776142 123.281 1 123.557 1V0ZM131.529 1C131.805 1 132.029 0.776142 132.029 0.5C132.029 0.223858 131.805 0 131.529 0V1ZM139.5 0C139.224 0 139 0.223858 139 0.5C139 0.776142 139.224 1 139.5 1V0ZM147.471 1C147.748 1 147.971 0.776142 147.971 0.5C147.971 0.223858 147.748 0 147.471 0V1ZM155.443 0C155.167 0 154.943 0.223858 154.943 0.5C154.943 0.776142 155.167 1 155.443 1V0ZM163.414 1C163.69 1 163.914 0.776142 163.914 0.5C163.914 0.223858 163.69 0 163.414 0V1ZM171.386 0C171.11 0 170.886 0.223858 170.886 0.5C170.886 0.776142 171.11 1 171.386 1V0ZM179.357 1C179.633 1 179.857 0.776142 179.857 0.5C179.857 0.223858 179.633 0 179.357 0V1ZM187.329 0C187.052 0 186.829 0.223858 186.829 0.5C186.829 0.776142 187.052 1 187.329 1V0ZM195.3 1C195.576 1 195.8 0.776142 195.8 0.5C195.8 0.223858 195.576 0 195.3 0V1ZM203.271 0C202.995 0 202.771 0.223858 202.771 0.5C202.771 0.776142 202.995 1 203.271 1V0ZM211.243 1C211.519 1 211.743 0.776142 211.743 0.5C211.743 0.223858 211.519 0 211.243 0V1ZM219.214 0C218.938 0 218.714 0.223858 218.714 0.5C218.714 0.776142 218.938 1 219.214 1V0ZM227.186 1C227.462 1 227.686 0.776142 227.686 0.5C227.686 0.223858 227.462 0 227.186 0V1ZM235.157 0C234.881 0 234.657 0.223858 234.657 0.5C234.657 0.776142 234.881 1 235.157 1V0ZM243.129 1C243.405 1 243.629 0.776142 243.629 0.5C243.629 0.223858 243.405 0 243.129 0V1ZM251.1 0C250.824 0 250.6 0.223858 250.6 0.5C250.6 0.776142 250.824 1 251.1 1V0ZM259.072 1C259.348 1 259.572 0.776142 259.572 0.5C259.572 0.223858 259.348 0 259.072 0V1ZM267.043 0C266.767 0 266.543 0.223858 266.543 0.5C266.543 0.776142 266.767 1 267.043 1V0ZM275.014 1C275.291 1 275.514 0.776142 275.514 0.5C275.514 0.223858 275.291 0 275.014 0V1ZM282.986 0C282.71 0 282.486 0.223858 282.486 0.5C282.486 0.776142 282.71 1 282.986 1V0ZM290.957 1C291.233 1 291.457 0.776142 291.457 0.5C291.457 0.223858 291.233 0 290.957 0V1ZM298.929 0C298.653 0 298.429 0.223858 298.429 0.5C298.429 0.776142 298.653 1 298.929 1V0ZM306.9 1C307.176 1 307.4 0.776142 307.4 0.5C307.4 0.223858 307.176 0 306.9 0V1ZM314.872 0C314.595 0 314.372 0.223858 314.372 0.5C314.372 0.776142 314.595 1 314.872 1V0ZM322.843 1C323.119 1 323.343 0.776142 323.343 0.5C323.343 0.223858 323.119 0 322.843 0V1ZM330.814 0C330.538 0 330.314 0.223858 330.314 0.5C330.314 0.776142 330.538 1 330.814 1V0ZM338.786 1C339.062 1 339.286 0.776142 339.286 0.5C339.286 0.223858 339.062 0 338.786 0V1ZM346.757 0C346.481 0 346.257 0.223858 346.257 0.5C346.257 0.776142 346.481 1 346.757 1V0ZM354.729 1C355.005 1 355.229 0.776142 355.229 0.5C355.229 0.223858 355.005 0 354.729 0V1ZM362.7 0C362.424 0 362.2 0.223858 362.2 0.5C362.2 0.776142 362.424 1 362.7 1V0ZM370.672 1C370.948 1 371.172 0.776142 371.172 0.5C371.172 0.223858 370.948 0 370.672 0V1ZM378.643 0C378.367 0 378.143 0.223858 378.143 0.5C378.143 0.776142 378.367 1 378.643 1V0ZM386.615 1C386.891 1 387.115 0.776142 387.115 0.5C387.115 0.223858 386.891 0 386.615 0V1ZM394.586 0C394.31 0 394.086 0.223858 394.086 0.5C394.086 0.776142 394.31 1 394.586 1V0ZM402.557 1C402.834 1 403.057 0.776142 403.057 0.5C403.057 0.223858 402.834 0 402.557 0V1ZM410.529 0C410.253 0 410.029 0.223858 410.029 0.5C410.029 0.776142 410.253 1 410.529 1V0ZM418.5 1C418.776 1 419 0.776142 419 0.5C419 0.223858 418.776 0 418.5 0V1ZM426.472 0C426.196 0 425.972 0.223858 425.972 0.5C425.972 0.776142 426.196 1 426.472 1V0ZM434.443 1C434.719 1 434.943 0.776142 434.943 0.5C434.943 0.223858 434.719 0 434.443 0V1ZM442.415 0C442.138 0 441.915 0.223858 441.915 0.5C441.915 0.776142 442.138 1 442.415 1V0ZM450.386 1C450.662 1 450.886 0.776142 450.886 0.5C450.886 0.223858 450.662 0 450.386 0V1ZM458.357 0C458.081 0 457.857 0.223858 457.857 0.5C457.857 0.776142 458.081 1 458.357 1V0ZM466.329 1C466.605 1 466.829 0.776142 466.829 0.5C466.829 0.223858 466.605 0 466.329 0V1ZM474.3 0C474.024 0 473.8 0.223858 473.8 0.5C473.8 0.776142 474.024 1 474.3 1V0ZM482.272 1C482.548 1 482.772 0.776142 482.772 0.5C482.772 0.223858 482.548 0 482.272 0V1ZM490.243 0C489.967 0 489.743 0.223858 489.743 0.5C489.743 0.776142 489.967 1 490.243 1V0ZM498.215 1C498.491 1 498.715 0.776142 498.715 0.5C498.715 0.223858 498.491 0 498.215 0V1ZM506.186 0C505.91 0 505.686 0.223858 505.686 0.5C505.686 0.776142 505.91 1 506.186 1V0ZM514.157 1C514.434 1 514.657 0.776142 514.657 0.5C514.657 0.223858 514.434 0 514.157 0V1ZM522.129 0C521.853 0 521.629 0.223858 521.629 0.5C521.629 0.776142 521.853 1 522.129 1V0ZM530.1 1C530.376 1 530.6 0.776142 530.6 0.5C530.6 0.223858 530.376 0 530.1 0V1ZM538.072 0C537.796 0 537.572 0.223858 537.572 0.5C537.572 0.776142 537.796 1 538.072 1V0ZM546.043 1C546.319 1 546.543 0.776142 546.543 0.5C546.543 0.223858 546.319 0 546.043 0V1ZM554.015 0C553.739 0 553.515 0.223858 553.515 0.5C553.515 0.776142 553.739 1 554.015 1V0ZM561.986 1C562.262 1 562.486 0.776142 562.486 0.5C562.486 0.223858 562.262 0 561.986 0V1ZM569.958 0C569.681 0 569.458 0.223858 569.458 0.5C569.458 0.776142 569.681 1 569.958 1V0ZM577.929 1C578.205 1 578.429 0.776142 578.429 0.5C578.429 0.223858 578.205 0 577.929 0V1ZM585.9 0C585.624 0 585.4 0.223858 585.4 0.5C585.4 0.776142 585.624 1 585.9 1V0ZM593.872 1C594.148 1 594.372 0.776142 594.372 0.5C594.372 0.223858 594.148 0 593.872 0V1ZM601.843 0C601.567 0 601.343 0.223858 601.343 0.5C601.343 0.776142 601.567 1 601.843 1V0ZM609.815 1C610.091 1 610.315 0.776142 610.315 0.5C610.315 0.223858 610.091 0 609.815 0V1ZM617.786 0C617.51 0 617.286 0.223858 617.286 0.5C617.286 0.776142 617.51 1 617.786 1V0ZM625.758 1C626.034 1 626.258 0.776142 626.258 0.5C626.258 0.223858 626.034 0 625.758 0V1ZM633.729 0C633.453 0 633.229 0.223858 633.229 0.5C633.229 0.776142 633.453 1 633.729 1V0ZM641.7 1C641.977 1 642.2 0.776142 642.2 0.5C642.2 0.223858 641.977 0 641.7 0V1ZM649.672 0C649.396 0 649.172 0.223858 649.172 0.5C649.172 0.776142 649.396 1 649.672 1V0ZM657.643 1C657.919 1 658.143 0.776142 658.143 0.5C658.143 0.223858 657.919 0 657.643 0V1ZM665.615 0C665.339 0 665.115 0.223858 665.115 0.5C665.115 0.776142 665.339 1 665.615 1V0ZM673.586 1C673.862 1 674.086 0.776142 674.086 0.5C674.086 0.223858 673.862 0 673.586 0V1ZM681.558 0C681.281 0 681.058 0.223858 681.058 0.5C681.058 0.776142 681.281 1 681.558 1V0ZM689.529 1C689.805 1 690.029 0.776142 690.029 0.5C690.029 0.223858 689.805 0 689.529 0V1ZM697.5 0C697.224 0 697 0.223858 697 0.5C697 0.776142 697.224 1 697.5 1V0ZM705.472 1C705.748 1 705.972 0.776142 705.972 0.5C705.972 0.223858 705.748 0 705.472 0V1ZM713.443 0C713.167 0 712.943 0.223858 712.943 0.5C712.943 0.776142 713.167 1 713.443 1V0ZM721.415 1C721.691 1 721.915 0.776142 721.915 0.5C721.915 0.223858 721.691 0 721.415 0V1ZM729.386 0C729.11 0 728.886 0.223858 728.886 0.5C728.886 0.776142 729.11 1 729.386 1V0ZM737.358 1C737.634 1 737.858 0.776142 737.858 0.5C737.858 0.223858 737.634 0 737.358 0V1ZM745.329 0C745.053 0 744.829 0.223858 744.829 0.5C744.829 0.776142 745.053 1 745.329 1V0ZM753.301 1C753.577 1 753.801 0.776142 753.801 0.5C753.801 0.223858 753.577 0 753.301 0V1ZM761.272 0C760.996 0 760.772 0.223858 760.772 0.5C760.772 0.776142 760.996 1 761.272 1V0ZM769.243 1C769.52 1 769.743 0.776142 769.743 0.5C769.743 0.223858 769.52 0 769.243 0V1ZM777.215 0C776.939 0 776.715 0.223858 776.715 0.5C776.715 0.776142 776.939 1 777.215 1V0ZM785.186 1C785.462 1 785.686 0.776142 785.686 0.5C785.686 0.223858 785.462 0 785.186 0V1ZM793.158 0C792.882 0 792.658 0.223858 792.658 0.5C792.658 0.776142 792.882 1 793.158 1V0ZM801.129 1C801.405 1 801.629 0.776142 801.629 0.5C801.629 0.223858 801.405 0 801.129 0V1ZM809.101 0C808.824 0 808.601 0.223858 808.601 0.5C808.601 0.776142 808.824 1 809.101 1V0ZM817.072 1C817.348 1 817.572 0.776142 817.572 0.5C817.572 0.223858 817.348 0 817.072 0V1ZM825.043 0C824.767 0 824.543 0.223858 824.543 0.5C824.543 0.776142 824.767 1 825.043 1V0ZM833.015 1C833.291 1 833.515 0.776142 833.515 0.5C833.515 0.223858 833.291 0 833.015 0V1ZM840.986 0C840.71 0 840.486 0.223858 840.486 0.5C840.486 0.776142 840.71 1 840.986 1V0ZM848.958 1C849.234 1 849.458 0.776142 849.458 0.5C849.458 0.223858 849.234 0 848.958 0V1ZM856.929 0C856.653 0 856.429 0.223858 856.429 0.5C856.429 0.776142 856.653 1 856.929 1V0ZM864.901 1C865.177 1 865.401 0.776142 865.401 0.5C865.401 0.223858 865.177 0 864.901 0V1ZM872.872 0C872.596 0 872.372 0.223858 872.372 0.5C872.372 0.776142 872.596 1 872.872 1V0ZM880.844 1C881.12 1 881.344 0.776142 881.344 0.5C881.344 0.223858 881.12 0 880.844 0V1ZM888.815 0C888.539 0 888.315 0.223858 888.315 0.5C888.315 0.776142 888.539 1 888.815 1V0ZM896.786 1C897.062 1 897.286 0.776142 897.286 0.5C897.286 0.223858 897.062 0 896.786 0V1ZM904.758 0C904.482 0 904.258 0.223858 904.258 0.5C904.258 0.776142 904.482 1 904.758 1V0ZM912.729 1C913.005 1 913.229 0.776142 913.229 0.5C913.229 0.223858 913.005 0 912.729 0V1ZM920.701 0C920.424 0 920.201 0.223858 920.201 0.5C920.201 0.776142 920.424 1 920.701 1V0ZM928.672 1C928.948 1 929.172 0.776142 929.172 0.5C929.172 0.223858 928.948 0 928.672 0V1ZM936.644 0C936.367 0 936.144 0.223858 936.144 0.5C936.144 0.776142 936.367 1 936.644 1V0ZM944.615 1C944.891 1 945.115 0.776142 945.115 0.5C945.115 0.223858 944.891 0 944.615 0V1ZM952.586 0C952.31 0 952.086 0.223858 952.086 0.5C952.086 0.776142 952.31 1 952.586 1V0ZM960.558 1C960.834 1 961.058 0.776142 961.058 0.5C961.058 0.223858 960.834 0 960.558 0V1ZM968.529 0C968.253 0 968.029 0.223858 968.029 0.5C968.029 0.776142 968.253 1 968.529 1V0ZM976.501 1C976.777 1 977.001 0.776142 977.001 0.5C977.001 0.223858 976.777 0 976.501 0V1ZM984.472 0C984.196 0 983.972 0.223858 983.972 0.5C983.972 0.776142 984.196 1 984.472 1V0ZM992.444 1C992.72 1 992.944 0.776142 992.944 0.5C992.944 0.223858 992.72 0 992.444 0V1ZM1000.42 0C1000.14 0 999.915 0.223858 999.915 0.5C999.915 0.776142 1000.14 1 1000.42 1V0ZM1008.39 1C1008.66 1 1008.89 0.776142 1008.89 0.5C1008.89 0.223858 1008.66 0 1008.39 0V1ZM1016.36 0C1016.08 0 1015.86 0.223858 1015.86 0.5C1015.86 0.776142 1016.08 1 1016.36 1V0ZM1024.33 1C1024.61 1 1024.83 0.776142 1024.83 0.5C1024.83 0.223858 1024.61 0 1024.33 0V1ZM1032.3 0C1032.02 0 1031.8 0.223858 1031.8 0.5C1031.8 0.776142 1032.02 1 1032.3 1V0ZM1040.27 1C1040.55 1 1040.77 0.776142 1040.77 0.5C1040.77 0.223858 1040.55 0 1040.27 0V1ZM1048.24 0C1047.97 0 1047.74 0.223858 1047.74 0.5C1047.74 0.776142 1047.97 1 1048.24 1V0ZM1056.22 1C1056.49 1 1056.72 0.776142 1056.72 0.5C1056.72 0.223858 1056.49 0 1056.22 0V1ZM1064.19 0C1063.91 0 1063.69 0.223858 1063.69 0.5C1063.69 0.776142 1063.91 1 1064.19 1V0ZM1072.16 1C1072.43 1 1072.66 0.776142 1072.66 0.5C1072.66 0.223858 1072.43 0 1072.16 0V1ZM1080.13 0C1079.85 0 1079.63 0.223858 1079.63 0.5C1079.63 0.776142 1079.85 1 1080.13 1V0ZM1088.1 1C1088.38 1 1088.6 0.776142 1088.6 0.5C1088.6 0.223858 1088.38 0 1088.1 0V1ZM1096.07 0C1095.8 0 1095.57 0.223858 1095.57 0.5C1095.57 0.776142 1095.8 1 1096.07 1V0ZM1104.04 1C1104.32 1 1104.54 0.776142 1104.54 0.5C1104.54 0.223858 1104.32 0 1104.04 0V1ZM1112.02 0C1111.74 0 1111.52 0.223858 1111.52 0.5C1111.52 0.776142 1111.74 1 1112.02 1V0ZM0 1H3.98571V0H0V1ZM11.9571 1H19.9286V0H11.9571V1ZM27.9 1H35.8714V0H27.9V1ZM43.8429 1H51.8143V0H43.8429V1ZM59.7857 1H67.7571V0H59.7857V1ZM75.7286 1H83.7V0H75.7286V1ZM91.6714 1H99.6429V0H91.6714V1ZM107.614 1H115.586V0H107.614V1ZM123.557 1H131.529V0H123.557V1ZM139.5 1H147.471V0H139.5V1ZM155.443 1H163.414V0H155.443V1ZM171.386 1H179.357V0H171.386V1ZM187.329 1H195.3V0H187.329V1ZM203.271 1H211.243V0H203.271V1ZM219.214 1H227.186V0H219.214V1ZM235.157 1H243.129V0H235.157V1ZM251.1 1H259.072V0H251.1V1ZM267.043 1H275.014V0H267.043V1ZM282.986 1H290.957V0H282.986V1ZM298.929 1H306.9V0H298.929V1ZM314.872 1H322.843V0H314.872V1ZM330.814 1H338.786V0H330.814V1ZM346.757 1H354.729V0H346.757V1ZM362.7 1H370.672V0H362.7V1ZM378.643 1H386.615V0H378.643V1ZM394.586 1H402.557V0H394.586V1ZM410.529 1H418.5V0H410.529V1ZM426.472 1H434.443V0H426.472V1ZM442.415 1H450.386V0H442.415V1ZM458.357 1H466.329V0H458.357V1ZM474.3 1H482.272V0H474.3V1ZM490.243 1H498.215V0H490.243V1ZM506.186 1H514.157V0H506.186V1ZM522.129 1H530.1V0H522.129V1ZM538.072 1H546.043V0H538.072V1ZM554.015 1H561.986V0H554.015V1ZM569.958 1H577.929V0H569.958V1ZM585.9 1H593.872V0H585.9V1ZM601.843 1H609.815V0H601.843V1ZM617.786 1H625.758V0H617.786V1ZM633.729 1H641.7V0H633.729V1ZM649.672 1H657.643V0H649.672V1ZM665.615 1H673.586V0H665.615V1ZM681.558 1H689.529V0H681.558V1ZM697.5 1H705.472V0H697.5V1ZM713.443 1H721.415V0H713.443V1ZM729.386 1H737.358V0H729.386V1ZM745.329 1H753.301V0H745.329V1ZM761.272 1H769.243V0H761.272V1ZM777.215 1H785.186V0H777.215V1ZM793.158 1H801.129V0H793.158V1ZM809.101 1H817.072V0H809.101V1ZM825.043 1H833.015V0H825.043V1ZM840.986 1H848.958V0H840.986V1ZM856.929 1H864.901V0H856.929V1ZM872.872 1H880.844V0H872.872V1ZM888.815 1H896.786V0H888.815V1ZM904.758 1H912.729V0H904.758V1ZM920.701 1H928.672V0H920.701V1ZM936.644 1H944.615V0H936.644V1ZM952.586 1H960.558V0H952.586V1ZM968.529 1H976.501V0H968.529V1ZM984.472 1H992.444V0H984.472V1ZM1000.42 1H1008.39V0H1000.42V1ZM1016.36 1H1024.33V0H1016.36V1ZM1032.3 1H1040.27V0H1032.3V1ZM1048.24 1H1056.22V0H1048.24V1ZM1064.19 1H1072.16V0H1064.19V1ZM1080.13 1H1088.1V0H1080.13V1ZM1096.07 1H1104.04V0H1096.07V1ZM1112.02 1H1116V0H1112.02V1Z" fill="#211A6B"/>
</svg>
