<svg width="432" height="146" viewBox="0 0 432 146" fill="none" xmlns="http://www.w3.org/2000/svg">
<path fill-rule="evenodd" clip-rule="evenodd" d="M432 126V124.861C404.844 120.116 372.159 110.801 331.675 99.2632L331.675 99.263C298.647 89.85 260.429 78.9579 215.79 67.8622C126.381 45.6378 62.7309 61.6083 0 79.3157V126C0 137.046 8.95431 146 20 146H412C423.046 146 432 137.046 432 126Z" fill="#FFDD86"/>
<g clip-path="url(#clip0_208_1157)">
<path d="M342.489 88.705C341.819 89.4015 341.27 89.9705 340.724 90.5421C340.608 90.6627 340.503 90.7927 340.392 90.917C339.535 91.8733 339.462 91.8772 338.558 90.9495C338.378 91.1522 338.188 91.3413 338.025 91.5513C337.527 92.1937 337.253 92.1746 336.881 91.4563C336.813 91.3259 336.751 91.1922 336.652 90.9864C336.414 91.1077 336.183 91.205 335.973 91.3356C335.628 91.5514 335.313 91.6276 334.952 91.3378C334.866 91.2684 334.582 91.328 334.477 91.4247C334.306 91.5823 334.212 91.8219 334.077 92.0219C333.724 92.5476 333.547 92.5565 333.179 92.0543C333.05 91.8784 332.953 91.6793 332.787 91.3997C332.549 91.7211 332.392 91.938 332.23 92.1512C331.978 92.482 331.748 92.4539 331.556 92.0954C331.495 91.9823 331.465 91.8533 331.413 91.7347C331.204 91.2544 330.986 91.1896 330.553 91.4818C330.43 91.5646 330.32 91.6657 330.2 91.7532C329.742 92.0876 329.533 92.0699 329.267 91.5817C329.058 91.198 328.858 91.044 328.458 91.3348C328.118 91.5818 327.82 91.4716 327.611 91.1354C327.39 90.7799 327.216 90.7931 326.945 91.1103C326.512 91.6175 326.248 91.5869 325.856 91.0268C325.611 90.6778 325.369 90.3216 325.179 89.9418C324.958 89.5018 324.735 89.4431 324.401 89.8172C324.323 89.9042 324.194 89.9451 324.037 90.0373C323.792 89.321 323.563 88.6507 323.336 87.9884C322.289 88.186 322.289 88.186 321.893 87.2456C321.255 87.5401 321.071 87.0801 320.894 86.6078C320.81 86.3822 320.751 86.139 320.625 85.939C320.53 85.7896 320.347 85.5972 320.203 85.597C319.744 85.5962 319.62 85.3243 319.489 84.9634C319.362 84.6101 319.146 84.289 318.97 83.9532C318.877 83.7753 318.738 83.6059 318.7 83.4165C318.04 80.1027 317.67 76.7814 318.453 73.4295C318.685 72.438 318.892 71.4396 319.078 70.4385C319.131 70.1541 319.077 69.8489 319.064 69.5533C319.046 69.1257 318.818 68.8548 318.407 68.7669C317.28 68.525 316.847 67.7583 316.751 66.6864C316.703 66.1533 316.592 65.6233 316.473 65.1002C316.289 64.2937 315.549 64.0512 314.897 64.5649C314.883 64.5762 314.865 64.5849 314.853 64.5984C314.349 65.1576 313.807 65.6382 312.974 65.3253C311.944 64.938 311.178 64.2942 310.959 63.1476C310.917 62.9303 310.902 62.6917 310.798 62.5054C310.302 61.6137 310.446 60.8065 311.033 60.0164C311.409 59.5113 311.733 58.9682 312.099 58.4562C312.455 57.959 312.955 57.5871 313.565 57.7248C315.039 58.0582 316.388 57.5439 317.775 57.2465C318.707 57.0464 319.489 56.6292 320.181 55.95C321.128 55.0201 322.37 55.0347 323.586 55.1444C324.211 55.2006 324.828 55.3624 325.443 55.4989C325.814 55.5813 326.004 55.4784 326.049 55.0855C326.096 54.6809 326.104 54.2445 326.272 53.8894C326.411 53.5964 326.734 53.2439 327.017 53.2022C327.407 53.1451 327.747 53.4186 327.914 53.8774C328.094 54.3732 328.37 54.8392 328.642 55.2958C328.925 55.7704 329.253 56.2184 329.455 56.5206C329.893 56.7737 330.206 56.9372 330.499 57.1313C330.651 57.2319 330.762 57.3908 330.899 57.5156C332.033 58.549 332.449 59.8017 332.368 61.3516C332.274 63.1617 332.386 64.9842 332.446 66.8C332.461 67.2554 332.571 67.7243 332.727 68.1547C333.006 68.929 333.471 69.5549 334.316 69.819C335.289 70.1234 336.266 70.4251 337.22 70.7841C338.056 71.0985 338.804 70.9243 339.58 70.5845C342.706 69.2154 345.16 67.0105 347.23 64.365C349.126 61.9416 350.864 59.393 352.798 57.0014C354.671 54.6834 357.068 52.9997 359.89 51.988C361.422 51.439 362.866 51.7192 364.13 52.7351C364.909 53.3614 365.638 54.0511 366.371 54.7324C366.911 55.2335 367.169 55.8889 367.254 56.6077C367.388 57.7494 367.501 58.8936 367.626 60.0363C367.708 60.7833 368.02 61.4233 368.547 61.9553C369.414 62.8319 370.582 62.8099 371.358 61.8521C372.163 60.859 373.008 59.8788 373.668 58.7915C375.717 55.4172 379.647 55.1818 382.42 56.5244C383.689 57.1385 384.639 58.0217 385.386 59.1983C386.708 61.2789 387.716 63.5002 388.493 65.8312C389.69 69.4238 391.476 72.7372 393.329 76.0166C393.93 77.0813 394.544 78.1477 395.252 79.1424C396.866 81.4112 397.691 83.9948 398.418 86.6321C399.029 88.8479 399.667 91.0566 400.328 93.2581C400.474 93.7474 400.721 94.2198 400.993 94.6555C402.84 97.6112 404.078 100.77 404.344 104.278C404.381 104.769 404.573 105.248 404.686 105.734C404.725 105.9 404.745 106.071 404.773 106.24C404.721 106.271 404.67 106.302 404.618 106.333C404.327 106.042 404 105.779 403.755 105.454C403.478 105.086 403.262 104.669 403.044 104.261C402.876 103.949 402.684 103.77 402.295 103.701C402.059 103.66 401.823 103.335 401.686 103.084C401.515 102.768 401.445 102.397 401.314 101.998C401.178 102.086 401.098 102.122 401.038 102.179C400.715 102.49 400.486 102.398 400.429 101.99C400.354 101.442 400.353 100.885 400.301 100.333C400.166 98.9084 399.94 97.5086 399.331 96.1878C399.15 95.795 399.15 95.3216 399.033 94.8949C398.947 94.5824 398.85 94.2562 398.678 93.9863C397.896 92.7551 397.081 91.5449 396.288 90.3204C395.839 89.6268 395.409 88.9205 394.877 88.071C394.607 88.5302 394.418 88.8323 394.248 89.145C393.982 89.6337 393.741 90.1361 393.469 90.6208C393.188 91.1215 392.939 91.5995 392.994 92.2252C393.105 93.4748 393.098 94.7281 393.531 95.94C394.221 97.8696 395.067 99.6987 396.275 101.375C396.908 102.254 397.438 103.249 397.796 104.269C398.034 104.943 398.012 105.777 397.885 106.499C397.484 108.783 396.908 111.037 396.537 113.324C396.276 114.928 396.236 116.568 396.106 118.193C396.062 118.748 396.048 119.304 396.014 119.859C395.934 121.121 395.467 122.128 394.44 122.971C393.816 123.484 393.358 124.289 393.035 125.051C392.738 125.751 392.357 126.253 391.65 126.434C390.919 126.62 390.168 126.734 389.419 126.834C388.648 126.937 387.869 126.984 387.094 127.059C386.543 127.112 386.054 127.011 385.729 126.512C385.413 126.027 385.445 125.536 385.716 125.039C386.265 124.035 387.042 123.321 388.165 122.995C388.733 122.831 389.28 122.592 389.838 122.393C391.05 121.959 391.814 121.085 392.175 119.885C392.474 118.895 392.746 117.886 392.905 116.865C393.281 114.464 393.575 112.05 393.917 109.642C394.071 108.55 393.75 107.625 392.985 106.852C392.516 106.378 392.001 105.949 391.538 105.47C390.972 104.885 390.442 104.267 389.89 103.669C389.477 103.22 389.105 102.711 388.624 102.35C387.308 101.361 386.194 100.177 385.133 98.9363C384.835 98.5881 384.643 98.5635 384.385 98.9758C383.309 100.694 382.833 102.588 382.822 104.586C382.816 105.635 382.961 106.691 383.111 107.733C383.295 109.007 383.023 110.152 382.034 110.955C381.063 111.744 379.983 112.414 378.895 113.039C376.437 114.453 374.085 115.978 372.321 118.263C371.734 119.024 370.943 119.208 370.026 118.923C369.32 118.703 369.208 118.79 369.05 119.52C368.883 120.294 368.819 121.12 368.493 121.822C367.679 123.578 365.043 124.617 363.199 124.017C362.252 123.708 361.937 123.04 362.278 122.108C362.661 121.059 363.361 120.242 364.222 119.583C366.126 118.124 367.91 116.546 369.513 114.754C370.487 113.665 371.708 112.874 373.032 112.258C374.822 111.424 376.356 110.305 377.283 108.499C377.669 107.746 377.807 106.953 377.584 106.127C377.135 104.462 376.628 102.812 376.222 101.137C375.683 98.9078 375.852 96.6814 376.427 94.4761C376.608 93.7812 376.781 93.084 376.962 92.3729C376.872 92.3495 376.807 92.3101 376.777 92.3284C375.527 93.0794 374.282 93.8399 373.031 94.5904C370.901 95.8684 368.681 96.9128 366.112 96.5302C364.354 96.2682 362.61 95.8798 360.884 95.4474C360.107 95.2526 359.388 94.8178 358.647 94.4818C357.73 94.0662 356.818 93.64 355.746 93.1461C355.738 93.6171 355.676 93.8938 355.737 94.1408C356.145 95.8043 356.151 97.4907 355.998 99.1752C355.665 102.847 355.751 106.51 356.084 110.176C356.161 111.022 356.176 111.883 356.111 112.729C355.994 114.243 356.171 115.727 356.404 117.213C356.54 118.078 356.202 118.725 355.571 119.331C355.136 119.748 354.718 120.313 354.578 120.883C354.162 122.576 353.089 123.302 351.439 123.265C350.41 123.241 349.38 123.127 348.356 123.012C348.074 122.98 347.792 122.824 347.539 122.676C346.483 122.058 346.336 120.657 347.358 120.002C348.265 119.421 349.314 119.059 350.309 118.619C350.698 118.447 351.117 118.344 351.51 118.18C352.971 117.568 353.639 116.465 353.383 114.907C353.055 112.914 352.648 110.934 352.277 108.948C352.213 108.602 352.191 108.243 352.086 107.91C351.907 107.336 351.751 106.736 351.455 106.222C350.669 104.855 350.428 103.335 350.066 101.841C349.769 100.618 349.38 99.4179 349.041 98.2047C348.963 97.9247 348.832 97.8195 348.564 97.9804C346.522 99.2069 344.238 99.8187 342.006 100.562C340.654 101.012 339.417 101.67 338.37 102.655C337.457 103.514 337.315 104.242 337.912 105.335C338.427 106.279 338.963 107.214 339.541 108.12C340.227 109.193 340.573 110.289 340.071 111.539C339.879 112.015 340.035 112.487 340.441 112.705C340.671 112.828 341.077 112.634 341.399 112.566C341.483 112.548 341.552 112.465 341.63 112.414C342.468 111.862 343.186 111.983 343.613 112.886C344.181 114.088 344.645 115.34 345.132 116.579C345.274 116.938 345.352 117.325 345.439 117.705C345.55 118.187 345.405 118.397 344.923 118.38C343.381 118.325 342.082 117.863 340.861 116.768C337.745 113.973 336.484 110.233 335.199 106.473C334.827 105.385 334.462 104.295 334.073 103.213C333.643 102.014 333.833 100.897 334.69 100.003C336.036 98.5989 337.466 97.2748 338.873 95.9308C340.209 94.6545 341.462 93.301 342.186 91.5813C342.479 90.8857 342.511 90.0783 342.638 89.3176C342.661 89.1767 342.569 89.0169 342.489 88.705Z" fill="#FBA616"/>
</g>
<g clip-path="url(#clip1_208_1157)">
<path d="M202.299 62.6668C202.299 63.0807 202.304 63.4945 202.297 63.9083C202.273 65.2909 202.167 66.6654 201.493 67.9087C201.248 68.3608 200.888 68.7545 200.557 69.1548C200.179 69.6112 199.874 70.0853 199.749 70.6848C199.427 72.2403 199.044 73.7836 198.735 75.3414C198.625 75.8978 198.647 76.4824 198.628 77.0546C198.599 77.9585 198.395 78.8169 198.002 79.6299C197.853 79.9396 197.856 80.2258 198.017 80.5387C198.242 80.975 198.51 81.4005 198.423 81.9396C198.348 82.405 198.163 82.6534 197.686 82.7258C197.272 82.7886 196.851 82.8302 196.433 82.8282C194.931 82.821 193.428 82.8016 191.927 82.7649C191.42 82.7524 190.91 82.6998 190.41 82.6201C189.942 82.5456 189.742 82.1532 189.905 81.7073C190.135 81.0777 190.626 80.7444 191.24 80.5629C191.788 80.401 192.344 80.2663 192.888 80.0898C193.365 79.9345 193.646 79.6153 193.65 79.074C193.654 78.6806 193.66 78.2728 193.764 77.8988C193.879 77.4816 194.061 77.0666 194.294 76.7011C195.205 75.2702 195.986 73.7941 196.015 72.0472C196.023 71.5813 195.93 71.1104 195.853 70.6469C195.76 70.0866 195.754 69.5451 195.913 68.9871C196.11 68.2963 195.981 67.6059 195.632 66.9954C195.212 66.2628 195.201 65.506 195.527 64.7952C196.19 63.3497 196.057 61.9603 195.238 60.6815C194.42 59.4052 194.145 58.0076 194.017 56.559C193.847 54.6259 193.859 52.6922 194.243 50.7773C194.29 50.5418 194.351 50.3073 194.427 50.0799C194.574 49.6437 194.449 49.4661 193.987 49.5489C193.216 49.6868 192.451 49.8615 191.683 50.0167C190.633 50.2289 189.579 50.3584 188.502 50.2328C187.886 50.1611 187.259 50.1812 186.645 50.1013C186.119 50.033 185.593 49.918 185.088 49.7584C184.134 49.4567 183.151 49.1954 182.257 48.7597C180.754 48.0272 179.328 47.1654 178.085 46.0025C175.133 43.2406 172.894 39.9595 170.983 36.4352C169.785 34.227 168.852 31.9049 168.19 29.48C167.594 27.2981 167.184 25.0859 167.372 22.8109C167.421 22.2223 167.595 21.6399 167.751 21.0653C167.868 20.632 168.152 20.2935 168.564 20.1025C168.868 19.9616 168.837 19.7424 168.651 19.6022C168.378 19.3959 168.058 19.1793 167.732 19.1273C166.981 19.0073 166.209 19.0178 165.455 18.9085C164.999 18.8423 164.54 18.6968 164.12 18.5039C163.667 18.2958 163.585 17.9296 163.847 17.498C163.961 17.3092 163.919 17.1984 163.794 17.0681C163.515 16.776 163.448 16.4589 163.67 16.1002C163.917 15.701 164.152 15.2941 164.405 14.8987C164.595 14.6004 164.771 14.2796 165.018 14.0335C165.268 13.7838 165.592 13.606 165.893 13.4112C166.05 13.3099 166.275 13.2804 166.385 13.1481C166.734 12.7286 167.184 12.535 167.7 12.4482C169.198 12.1961 170.698 11.9799 172.205 12.3797C172.88 12.5588 173.555 12.7401 174.224 12.9399C174.748 13.096 175.233 12.9385 175.715 12.7831C175.841 12.7424 175.949 12.5971 176.033 12.4775C176.822 11.3574 177.847 10.7398 179.268 10.8448C180.813 10.959 182.292 11.2664 183.592 12.1595C184.271 12.6257 184.725 13.2855 185.067 14.0226C185.285 14.4928 185.256 14.9371 184.796 15.3292C184.911 15.3749 184.983 15.418 185.059 15.4311C185.923 15.5784 186.326 16.0237 186.219 16.9093C186.154 17.4423 186.343 17.7348 186.712 18.0658C188.473 19.6458 189.653 21.6145 190.467 23.8202C190.77 24.6419 191.077 25.4633 191.425 26.2664C191.603 26.6759 191.771 26.6954 192.14 26.4319C193.433 25.5073 194.498 24.3433 195.53 23.1494C197.372 21.0191 198.853 18.6667 199.97 16.0737C200.729 14.3129 201.795 12.748 203.41 11.641C205.427 10.2596 208.038 10.3342 210.137 11.8053C211.751 12.936 212.867 14.4837 213.801 16.1823C214.828 18.0524 215.555 20.0438 216.156 22.085C216.54 23.3918 217.547 23.8086 218.77 23.1935C219.779 22.6854 220.425 21.8172 221.049 20.9359C222.137 19.4009 223.165 17.8235 224.272 16.303C225.223 14.9972 226.339 13.8428 227.864 13.1942C229.212 12.6204 230.607 12.4187 232.029 12.9118C233.069 13.2725 233.802 14.03 234.432 14.8954C235.398 16.2229 236.094 17.6994 236.64 19.2332C237.623 21.9983 238.591 24.7716 239.446 27.5778C239.752 28.5848 240.488 28.8638 241.259 29.2268C243.305 30.1908 245.363 31.1321 247.207 32.4679C249.02 33.7815 250.21 35.5475 250.944 37.64C251.809 40.1067 252.107 42.6662 252.116 45.261C252.122 46.8891 252.039 48.5177 251.994 50.1459C251.99 50.2603 251.993 50.3803 251.958 50.4869C251.895 50.6819 251.807 50.8689 251.73 51.0591C251.521 50.961 251.262 50.9116 251.112 50.7567C250.359 49.9768 249.983 49.0177 249.897 47.9446C249.758 46.2049 249.585 44.4702 249.022 42.8049C248.887 42.4054 248.671 42.0333 248.493 41.6485C248.448 41.6521 248.404 41.6557 248.359 41.6595C248.318 41.7493 248.251 41.8362 248.24 41.9294C247.902 44.8505 247.535 47.7683 247.65 50.7217C247.705 52.133 247.653 53.549 247.718 54.9596C247.796 56.6483 247.881 58.3419 248.089 60.0176C248.29 61.6474 248.726 63.2426 249.483 64.7118C249.971 65.6585 249.901 66.5628 249.474 67.4569C249.014 68.4185 248.446 69.3283 247.98 70.2872C247.398 71.4851 246.864 72.7068 246.322 73.9239C245.711 75.2941 245.098 76.6636 244.523 78.0483C244.355 78.4515 244.284 78.9019 244.216 79.338C244.148 79.777 244.12 80.225 244.109 80.6698C244.094 81.2835 243.868 81.783 243.386 82.1605C242.975 82.4824 242.765 82.8399 243.029 83.3741C243.132 83.5826 243.161 83.8405 243.174 84.0783C243.199 84.5708 242.978 84.8334 242.485 84.8467C241.684 84.8681 240.882 84.8629 240.08 84.841C238.719 84.8041 237.357 84.7504 235.996 84.6937C235.454 84.6712 235.287 84.4219 235.43 83.895C235.672 83.0025 236.124 82.64 237.142 82.5583C237.534 82.5268 237.93 82.5343 238.325 82.5341C238.739 82.534 239.016 82.3555 239.183 81.9673C239.384 81.5006 239.581 81.0267 239.842 80.5932C240.109 80.1507 240.445 79.7493 240.76 79.3375C241.467 78.4155 241.928 77.3829 242.231 76.2637C242.533 75.1475 242.919 74.0533 243.206 72.9338C243.33 72.4539 243.346 71.9322 243.326 71.4328C243.3 70.7865 243.18 70.1443 243.117 69.4986C243.027 68.5832 243.014 67.6705 243.221 66.7637C243.376 66.0819 243.239 65.438 242.985 64.7911C242.623 63.8698 242.324 62.924 241.987 61.9926C241.939 61.8593 241.83 61.7482 241.715 61.5761C241.67 61.7028 241.633 61.7589 241.632 61.8159C241.585 63.5585 241.524 65.301 241.509 67.044C241.504 67.6343 241.771 68.2367 241.515 68.8147C241.328 69.2352 241.117 69.6767 240.808 70.0056C239.16 71.7558 237.446 73.4434 235.819 75.2128C234.668 76.4654 233.58 77.7822 232.543 79.1311C231.998 79.8394 231.64 80.6886 231.164 81.4535C230.891 81.8924 230.524 82.2729 230.252 82.7126C230.101 82.9565 230.004 83.2623 229.978 83.5492C229.919 84.1912 229.778 84.3887 229.142 84.3665C227.234 84.2996 225.326 84.2133 223.418 84.1182C222.911 84.0929 222.621 83.5768 222.706 82.9288C222.775 82.4015 223.164 81.9756 223.693 81.9077C224.246 81.8366 224.805 81.7771 225.362 81.7639C225.903 81.7509 226.356 81.5969 226.719 81.1876C227.04 80.8267 227.363 80.4669 227.701 80.1221C228.313 79.4975 228.976 78.9175 229.547 78.2574C230.109 77.6073 230.616 76.9032 231.089 76.1839C231.989 74.8141 232.886 73.4399 233.701 72.019C234.007 71.4853 234.146 70.8282 234.245 70.2089C234.626 67.8296 234.829 65.4325 234.804 63.0206C234.8 62.6158 234.704 62.2126 234.688 61.8073C234.652 60.8435 234.555 59.8714 234.638 58.9162C234.745 57.6967 234.259 56.6904 233.774 55.6488C233.287 54.6033 232.858 53.5308 232.406 52.469C232.376 52.3996 232.361 52.3229 232.348 52.2482C232.248 51.7091 232.091 51.601 231.583 51.8736C230.78 52.3044 229.978 52.7504 229.232 53.2707C228.097 54.0625 227.036 54.9577 225.748 55.5185C224.216 56.1858 222.618 56.5588 220.96 56.7085C218.718 56.9111 216.503 56.6897 214.325 56.1821C212.929 55.8568 211.565 55.393 210.194 54.9667C209.676 54.8056 209.637 54.8169 209.55 55.3643C209.36 56.5707 209.15 57.7738 208.952 58.9787C208.828 59.7345 208.958 60.4342 209.355 61.1019C209.948 62.0986 210.438 63.1421 210.672 64.2933C210.936 65.5917 210.752 66.8455 210.383 68.0953C210.174 68.802 210.006 69.5214 209.841 70.2398C209.624 71.1797 209.878 72.0805 210.09 72.9867C210.396 74.299 210.674 75.6178 210.979 76.9303C211.067 77.3126 211.156 77.7101 211.336 78.0524C211.59 78.5345 211.55 78.9963 211.353 79.4481C211.166 79.8743 211.225 80.2326 211.402 80.6484C211.644 81.2143 211.831 81.8111 211.967 82.4117C212.099 82.9993 211.867 83.2704 211.255 83.326C210.698 83.3764 210.137 83.4036 209.577 83.4107C207.875 83.4329 206.167 83.6283 204.475 83.2695C204.043 83.178 203.559 83.0797 203.471 82.5872C203.381 82.0887 203.716 81.7002 204.137 81.481C204.514 81.2852 204.941 81.1824 205.353 81.0612C205.62 80.9825 205.902 80.953 206.173 80.8862C206.596 80.7819 206.797 80.4549 206.897 80.0732C207.051 79.4834 207.199 78.8895 207.3 78.2889C207.593 76.5405 207.454 74.8148 206.962 73.115C206.827 72.6511 206.698 72.1856 206.548 71.7269C206.482 71.5243 206.402 71.308 206.268 71.1488C205.927 70.744 205.813 70.2896 205.817 69.7717C205.824 68.8563 205.319 68.1773 204.756 67.5145C204.399 67.0944 204.058 66.6406 203.817 66.1492C203.673 65.8552 203.749 65.4581 203.705 65.1101C203.659 64.7423 203.677 64.3292 203.508 64.023C203.226 63.5107 202.819 63.0678 202.464 62.5955C202.409 62.6193 202.354 62.643 202.299 62.6668Z" fill="#FBA616"/>
</g>
<defs>
<clipPath id="clip0_208_1157">
<rect width="100" height="100" fill="white" transform="translate(314.948 31) rotate(8.35724)"/>
</clipPath>
<clipPath id="clip1_208_1157">
<rect width="90" height="90" fill="white" transform="translate(164.298 0.115234) rotate(2.65835)"/>
</clipPath>
</defs>
</svg>
