<svg width="1116" height="199" viewBox="0 0 1116 199" fill="none" xmlns="http://www.w3.org/2000/svg">
<path fill-rule="evenodd" clip-rule="evenodd" d="M1116 154.955V179C1116 190.046 1107.05 199 1096 199H20C8.95431 199 0 190.046 0 179V155.53C112.817 171.919 252.497 169.284 333 157C376.149 150.416 419.376 140.024 463.847 129.333C578.097 101.867 700.559 72.4272 851 100.5C925.8 114.458 989.841 128.16 1045.18 140.001C1070.55 145.428 1094.09 150.464 1116 154.955Z" fill="#FFDD86"/>
<g clip-path="url(#clip0_201_1157)">
<path d="M936.433 108.849C936.013 110.721 935.875 112.605 936.006 114.519C936.124 116.25 936.217 117.982 935.926 119.714C935.856 120.13 935.889 120.618 936.04 121.008C936.957 123.367 938.304 125.467 940.376 126.945C941.407 127.681 941.83 128.554 941.924 129.721C941.999 130.646 942.411 131.077 943.332 131.166C943.803 131.212 944.284 131.205 944.756 131.165C945.506 131.101 946.013 131.429 946.247 132.105C946.515 132.878 946.724 133.673 946.918 134.469C947.086 135.161 947.313 135.284 947.806 134.797C949.247 133.374 950.725 131.98 952.062 130.463C953.45 128.887 954.568 127.112 954.74 124.932C954.822 123.897 954.8 122.852 954.799 121.812C954.797 119.785 954.657 117.75 954.795 115.733C954.941 113.607 955.345 111.499 955.639 109.383C955.748 108.595 955.447 108.311 954.68 108.539C952.076 109.311 949.433 109.279 946.812 108.768C943.796 108.179 940.933 107.149 938.423 105.296C937.785 104.826 937.488 104.918 937.267 105.668C936.957 106.719 936.708 107.788 936.433 108.849ZM962.606 119.267C962.398 121.15 962.219 122.767 962.041 124.384C961.999 124.766 961.961 125.148 961.917 125.529C961.798 126.565 961.325 127.342 960.35 127.807C958.896 128.499 957.844 129.686 956.786 130.846C955.274 132.506 953.749 134.158 952.327 135.894C951.726 136.627 951.361 137.557 950.915 138.412C950.755 138.716 950.687 139.068 950.553 139.387C949.988 140.731 949.796 140.842 948.361 140.699C947.261 140.589 946.966 140.783 946.58 141.869C946.215 142.892 945.696 143.349 944.644 143.324C942.726 143.279 940.968 142.737 939.558 141.352C938.738 140.546 938.81 140.011 939.842 139.506C940.727 139.072 941.65 138.718 942.542 138.3C943.268 137.959 943.343 137.677 942.901 137.025C942.021 135.727 940.857 134.707 939.473 134.022C938.272 133.429 937.701 132.485 937.315 131.289C936.191 127.801 934.171 124.885 931.517 122.387C931.092 121.986 930.661 121.591 930.246 121.181C928.877 119.825 928.598 118.142 928.816 116.32C929.079 114.119 929.267 111.914 928.922 109.708C928.77 108.736 928.577 107.763 928.305 106.819C928.007 105.783 927.34 105.537 926.486 106.189C924.76 107.506 923.094 108.903 921.396 110.258C919.327 111.909 917.72 114.01 915.885 115.889C915.127 116.666 914.178 117.136 913.178 117.503C911.303 118.193 909.973 119.546 908.932 121.16C907.696 123.076 906.625 125.096 905.423 127.035C904.849 127.961 904.118 128.789 903.5 129.689C903.282 130.008 903.105 130.4 903.053 130.778C902.912 131.81 902.273 132.67 900.988 132.694C898.915 132.732 896.921 132.277 894.944 131.744C894.123 131.523 894.007 130.99 894.689 130.45C896.047 129.375 897.479 128.393 898.855 127.339C899.261 127.028 899.739 126.665 899.913 126.22C900.647 124.347 902.097 123.067 903.409 121.648C904.619 120.339 905.75 118.944 906.788 117.496C907.307 116.773 907.574 115.858 907.9 115.008C908.463 113.543 908.896 112.022 909.543 110.597C910.272 108.991 911.416 107.688 913.016 106.847C913.945 106.359 914.556 105.541 915.051 104.673C916.182 102.692 917.237 100.668 918.322 98.6602C918.374 98.5638 918.445 98.4645 918.455 98.3612C918.482 98.1037 918.479 97.843 918.488 97.5838C918.217 97.5932 917.893 97.5091 917.683 97.627C915.794 98.6841 913.895 98.7225 911.962 97.7762C910.832 97.223 909.843 96.4712 909 95.5493C906.338 92.6365 904.203 89.3786 902.769 85.6922C902.123 84.0292 901.875 82.2662 901.806 80.4895C901.603 75.2336 901.952 70.0054 902.653 64.7973C902.67 64.6705 902.681 64.5426 902.705 64.4168C903.03 62.6981 902.386 61.3735 900.934 60.5053C899.229 59.4859 897.458 58.5769 895.715 57.6221C895.411 57.4557 895.103 57.2951 894.793 57.1401C894.41 56.948 894.264 56.6523 894.236 56.2176C894.219 55.9376 894.074 55.6043 893.874 55.4117C893.555 55.1046 893.52 54.8085 893.648 54.4265C894.18 52.8404 896.035 51.3578 897.716 51.3787C899.501 51.4008 901.288 51.5544 903.066 51.7296C904.037 51.8255 904.93 51.6825 905.761 51.2162C907.479 50.2529 909.253 50.0861 911.091 50.7841C912.604 51.3585 913.781 52.3879 914.758 53.6494C915.127 54.1256 915.494 54.4947 916.149 54.5925C916.889 54.7029 917.421 55.6103 917.277 56.3535C917.226 56.6184 917.142 56.8946 917.002 57.1217C916.274 58.301 916.507 59.4757 916.938 60.6775C917.227 61.4832 917.468 62.308 917.687 63.1358C917.938 64.0823 918.139 65.0421 918.364 65.9955C918.728 67.5295 918.734 69.0747 918.491 70.6232C918.215 72.3861 918.872 73.7665 920.197 74.8799C921.046 75.5925 921.797 75.6091 922.579 74.8346C923.185 74.2334 923.729 73.5622 924.249 72.8824C925.43 71.3393 926.962 70.2377 928.637 69.3123C929.788 68.6765 930.965 68.0885 932.11 67.4406C933.882 66.437 934.982 64.7704 936.192 63.2161C938.159 60.6905 940.53 58.6264 943.322 57.0649C943.919 56.7311 944.587 56.4684 945.254 56.3282C946.68 56.0289 947.661 56.8291 948.481 57.857C950.348 60.1967 951.282 62.8142 950.945 65.8556C950.798 67.1755 950.801 68.5175 950.819 69.8481C950.831 70.7936 951.15 71.6745 951.741 72.4394C952.578 73.522 953.809 73.6451 954.678 72.5869C955.471 71.6208 956.164 70.5554 956.783 69.4664C958.483 66.4718 958.355 65.6801 961.003 63.5013C961.185 63.3516 962.003 62.5012 963.003 62.5012C964.003 62.5012 964.003 62.5012 965.503 63.0013C967.003 64.0013 967.306 63.8892 967.894 65.1118C969.216 67.8591 970.483 70.6387 971.621 73.4657C972.11 74.6803 972.369 76.0338 972.476 77.3452C972.632 79.2441 973.404 80.7578 974.701 82.0913C977.044 84.4998 979.343 86.9509 981.689 89.3565C983.514 91.227 984.482 93.4981 984.822 96.0347C985.251 99.2362 985.505 102.462 985.978 105.656C986.312 107.908 986.917 110.118 987.337 112.358C987.646 114.003 987.86 115.667 988.089 117.327C988.116 117.524 987.968 117.746 987.901 117.957C987.68 117.833 987.395 117.76 987.25 117.576C985.962 115.942 984.985 114.132 984.275 112.177C983.416 109.807 982.945 107.348 982.779 104.845C982.603 102.204 982.572 99.5526 982.435 96.908C982.368 95.6046 982.226 94.2949 981.08 93.4004C980.941 93.2924 980.728 93.2809 980.549 93.2248C980.526 93.3901 980.444 93.5751 980.49 93.7182C981.073 95.5128 981.018 97.354 980.931 99.2012C980.815 101.665 980.612 104.13 980.629 106.593C980.661 111.085 982.104 115.086 985.132 118.468C985.765 119.175 986.366 119.913 986.951 120.66C987.505 121.367 987.703 122.203 987.629 123.086C987.51 124.506 987.374 125.926 987.211 127.341C986.968 129.451 986.759 131.566 987.05 133.681C987.239 135.054 987.594 136.403 987.805 137.774C987.92 138.525 987.974 139.306 987.902 140.059C987.829 140.835 988.096 141.378 988.679 141.805C989.149 142.15 989.644 142.463 990.134 142.781C990.691 143.142 990.983 143.629 990.869 144.306C990.559 146.16 990.008 147.932 989.039 149.554C988.576 150.33 987.719 150.4 987.112 149.733C986.978 149.586 986.861 149.42 986.758 149.249C986.426 148.701 986.151 147.799 985.719 146.902C985.248 145.923 984.713 144.964 984.102 144.066C983.171 142.697 982.915 141.184 982.918 139.586C982.921 137.978 982.908 136.37 982.926 134.762C982.966 131.399 981.939 128.332 980.391 125.397C978.519 121.851 976.076 118.755 973.078 116.102C971.323 114.548 970.307 112.539 969.482 110.417C968.935 109.01 968.614 108.89 967.379 109.801C965.41 111.254 964.253 113.25 963.565 115.54C963.171 116.851 962.879 118.192 962.606 119.267Z" fill="#FBA616"/>
</g>
<g clip-path="url(#clip1_201_1157)">
<path d="M718.225 66.7527C717.475 67.6242 716.86 68.3364 716.248 69.0515C716.119 69.2024 716.002 69.3638 715.878 69.5188C714.924 70.7114 714.837 70.7208 713.702 69.678C713.501 69.9307 713.288 70.1679 713.109 70.4281C712.559 71.2242 712.231 71.2194 711.742 70.3905C711.653 70.24 711.571 70.0851 711.439 69.8472C711.164 70.0069 710.897 70.1378 710.656 70.3067C710.259 70.5858 709.891 70.6971 709.443 70.3765C709.336 70.2997 709.002 70.3891 708.885 70.511C708.691 70.7095 708.595 71.0004 708.448 71.2468C708.063 71.8947 707.854 71.9169 707.383 71.3444C707.219 71.1439 707.09 70.9137 706.875 70.5924C706.613 70.9899 706.44 71.2579 706.262 71.5219C705.984 71.9316 705.71 71.9133 705.458 71.5C705.378 71.3695 705.333 71.2183 705.264 71.0808C704.984 70.5239 704.721 70.4612 704.225 70.8369C704.084 70.9433 703.96 71.0707 703.823 71.1826C703.302 71.6099 703.052 71.6027 702.704 71.0402C702.43 70.598 702.182 70.4281 701.726 70.8C701.339 71.1158 700.977 71.0044 700.707 70.6187C700.421 70.2109 700.215 70.2379 699.914 70.6327C699.432 71.2638 699.117 71.2448 698.614 70.6051C698.301 70.2065 697.989 69.7992 697.738 69.3605C697.447 68.8521 697.179 68.7971 696.806 69.2636C696.719 69.372 696.569 69.4291 696.388 69.549C696.05 68.714 695.733 67.9326 695.42 67.1607C694.189 67.4643 694.189 67.4643 693.657 66.373C692.919 66.7647 692.67 66.2304 692.428 65.6807C692.313 65.4182 692.227 65.1332 692.064 64.9038C691.942 64.7326 691.712 64.516 691.541 64.5252C690.995 64.5544 690.83 64.2395 690.651 63.8193C690.476 63.4079 690.199 63.0405 689.968 62.6531C689.845 62.448 689.669 62.2558 689.612 62.0331C688.609 58.1392 687.952 54.2172 688.662 50.1831C688.872 48.9897 689.052 47.7899 689.208 46.5881C689.252 46.2467 689.167 45.8877 689.133 45.5373C689.083 45.0304 688.794 44.7236 688.3 44.646C686.945 44.4327 686.38 43.5503 686.195 42.283C686.104 41.6527 685.937 41.0303 685.761 40.4166C685.489 39.4703 684.594 39.2309 683.853 39.8841C683.837 39.8986 683.817 39.91 683.803 39.9269C683.241 40.6244 682.628 41.2312 681.619 40.9141C680.369 40.5216 679.416 39.8071 679.081 38.459C679.017 38.2036 678.983 37.9211 678.848 37.7066C678.199 36.6798 678.318 35.7112 678.963 34.7338C679.376 34.1089 679.726 33.4423 680.127 32.8098C680.518 32.1956 681.087 31.7209 681.82 31.8445C683.594 32.1437 685.163 31.4439 686.792 30.9992C687.886 30.7002 688.787 30.1532 689.565 29.3006C690.629 28.1335 692.106 28.0691 693.558 28.1195C694.304 28.1452 695.047 28.2969 695.787 28.4186C696.233 28.4921 696.452 28.3574 696.48 27.8876C696.509 27.4038 696.491 26.8847 696.667 26.4518C696.812 26.0945 697.173 25.6544 697.507 25.5862C697.966 25.4927 698.388 25.7953 698.617 26.3295C698.864 26.9068 699.222 27.4423 699.575 27.967C699.942 28.5123 700.362 29.023 700.622 29.3687C701.159 29.6407 701.541 29.8144 701.902 30.0257C702.089 30.1353 702.232 30.3168 702.403 30.4561C703.818 31.6094 704.396 33.0704 704.401 34.9173C704.407 37.0743 704.66 39.2324 704.851 41.3859C704.9 41.926 705.061 42.4759 705.274 42.9771C705.657 43.8787 706.251 44.5918 707.272 44.8501C708.448 45.1478 709.628 45.442 710.786 45.8058C711.8 46.1244 712.677 45.8682 713.577 45.4135C717.202 43.5812 719.972 40.8 722.257 37.5206C724.351 34.5164 726.249 31.374 728.389 28.4052C730.462 25.5278 733.2 23.3696 736.486 21.9819C738.27 21.2289 740.005 21.4669 741.573 22.5908C742.54 23.2838 743.452 24.0553 744.368 24.8166C745.041 25.3765 745.392 26.1383 745.54 26.9868C745.774 28.3345 745.984 29.6866 746.207 31.0361C746.353 31.9183 746.767 32.6582 747.427 33.2557C748.515 34.2402 749.901 34.1372 750.76 32.9482C751.652 31.7153 752.591 30.495 753.304 29.1597C755.517 25.0157 760.171 24.4777 763.555 25.8905C765.103 26.5367 766.289 27.5237 767.254 28.8726C768.962 31.2578 770.305 33.8308 771.382 36.5494C773.041 40.7393 775.38 44.5588 777.797 48.3335C778.582 49.559 779.382 50.7858 780.288 51.9211C782.355 54.5107 783.505 57.5262 784.542 60.612C785.414 63.2047 786.318 65.787 787.247 68.3594C787.453 68.9311 787.778 69.4761 788.13 69.9759C790.519 73.3664 792.197 77.0386 792.744 81.1887C792.82 81.7702 793.079 82.3265 793.246 82.8966C793.304 83.0915 793.338 83.2934 793.383 83.492C793.323 83.5324 793.264 83.5728 793.204 83.6131C792.84 83.2865 792.434 82.995 792.122 82.6246C791.768 82.2058 791.484 81.7252 791.198 81.2542C790.978 80.8942 790.738 80.6943 790.271 80.6384C789.988 80.6047 789.686 80.2345 789.508 79.945C789.283 79.581 789.175 79.1449 788.994 78.6794C788.838 78.7928 788.745 78.8407 788.678 78.9129C788.314 79.3036 788.036 79.2088 787.942 78.7279C787.816 78.082 787.779 77.4195 787.681 76.7679C787.426 75.0836 787.066 73.4352 786.255 71.9059C786.015 71.451 785.984 70.8886 785.816 70.3893C785.693 70.0237 785.557 69.6424 785.335 69.333C784.325 67.9215 783.277 66.5372 782.254 65.1345C781.675 64.3399 781.117 63.529 780.43 62.5545C780.139 63.1178 779.934 63.4893 779.753 63.8721C779.469 64.4701 779.216 65.0829 778.924 65.6767C778.623 66.2902 778.358 66.8745 778.466 67.6143C778.68 69.0918 778.753 70.5813 779.348 71.9928C780.294 74.2402 781.42 76.3579 782.966 78.2701C783.776 79.2724 784.47 80.4207 784.964 81.6086C785.29 82.3945 785.319 83.3858 785.215 84.253C784.889 86.9927 784.353 89.7082 784.062 92.4508C783.858 94.3739 783.918 96.3253 783.871 98.2645C783.855 98.9259 783.875 99.5883 783.87 100.25C783.859 101.754 783.37 102.982 782.206 104.051C781.498 104.701 781.007 105.688 780.673 106.615C780.366 107.466 779.946 108.088 779.118 108.349C778.262 108.619 777.376 108.803 776.494 108.971C775.584 109.144 774.662 109.251 773.746 109.391C773.095 109.491 772.507 109.403 772.088 108.831C771.681 108.275 771.686 107.69 771.976 107.082C772.562 105.853 773.438 104.953 774.751 104.492C775.415 104.259 776.049 103.94 776.7 103.666C778.111 103.072 778.961 101.983 779.311 100.533C779.601 99.3366 779.858 98.1198 779.98 96.8967C780.268 94.0186 780.46 91.131 780.707 88.2484C780.819 86.9397 780.376 85.8624 779.417 84.9942C778.829 84.4615 778.188 83.9855 777.606 83.4469C776.895 82.7895 776.225 82.0896 775.53 81.4152C775.009 80.9094 774.534 80.3291 773.938 79.9312C772.31 78.8431 770.908 77.5098 769.566 76.1051C769.189 75.7111 768.959 75.6945 768.68 76.2013C767.515 78.3137 767.074 80.5953 767.192 82.9695C767.254 84.2163 767.495 85.4616 767.742 86.6901C768.044 88.1916 767.797 89.5703 766.675 90.5898C765.573 91.5907 764.333 92.4577 763.082 93.2726C760.255 95.1136 757.56 97.0806 755.614 99.9119C754.967 100.854 754.039 101.125 752.931 100.846C752.078 100.631 751.951 100.742 751.811 101.62C751.663 102.55 751.641 103.536 751.3 104.392C750.449 106.532 747.384 107.939 745.154 107.348C744.008 107.044 743.59 106.27 743.934 105.14C744.321 103.869 745.098 102.852 746.078 102.012C748.244 100.153 750.261 98.1613 752.047 95.9263C753.132 94.5689 754.532 93.549 756.064 92.7291C758.137 91.6205 759.886 90.1909 760.868 87.9839C761.277 87.0636 761.389 86.1126 761.07 85.1449C760.426 83.197 759.716 81.2696 759.124 79.3064C758.336 76.6928 758.391 74.0363 758.929 71.3781C759.098 70.5406 759.258 69.7008 759.426 68.844C759.317 68.8222 759.238 68.7795 759.203 68.8033C757.767 69.7778 756.338 70.7633 754.902 71.7373C752.455 73.3958 749.885 74.7828 746.807 74.4971C744.702 74.3013 742.604 73.9546 740.525 73.5542C739.588 73.3739 738.705 72.9046 737.803 72.5541C736.686 72.1206 735.574 71.6742 734.269 71.1578C734.29 71.7179 734.235 72.0507 734.323 72.3403C734.918 74.2899 735.035 76.2933 734.964 78.3049C734.81 82.6899 735.153 87.0365 735.79 91.3704C735.937 92.37 736.011 93.3926 735.99 94.4019C735.951 96.2085 736.259 97.9594 736.633 99.7099C736.851 100.729 736.493 101.52 735.783 102.282C735.293 102.806 734.834 103.505 734.705 104.191C734.321 106.229 733.095 107.163 731.132 107.227C729.907 107.267 728.677 107.199 727.451 107.129C727.114 107.11 726.77 106.943 726.459 106.784C725.164 106.119 724.897 104.465 726.068 103.619C727.108 102.869 728.331 102.37 729.484 101.781C729.934 101.552 730.425 101.402 730.881 101.181C732.577 100.358 733.298 99.0031 732.892 97.1695C732.371 94.8226 731.758 92.4964 731.186 90.1609C731.087 89.754 731.037 89.3295 730.891 88.9405C730.64 88.2707 730.416 87.5678 730.03 86.9766C729.006 85.4044 728.62 83.6142 728.091 81.8627C727.658 80.4292 727.117 79.0284 726.634 77.6092C726.523 77.2816 726.361 77.1653 726.053 77.3741C723.707 78.9657 721.034 79.8427 718.43 80.8722C716.853 81.4959 715.427 82.3593 714.248 83.598C713.219 84.6795 713.098 85.5537 713.88 86.8134C714.555 87.9006 715.252 88.9766 715.999 90.015C716.885 91.2451 717.368 92.5238 716.853 94.0421C716.657 94.6204 716.872 95.1714 717.37 95.4037C717.651 95.5351 718.12 95.2778 718.499 95.1752C718.598 95.1487 718.674 95.045 718.763 94.9793C719.723 94.2687 720.583 94.3652 721.15 95.4104C721.905 96.8007 722.538 98.2576 723.198 99.6976C723.39 100.116 723.508 100.571 723.637 101.015C723.8 101.582 723.642 101.841 723.068 101.852C721.233 101.888 719.658 101.424 718.136 100.204C714.25 97.0872 712.505 92.7267 710.731 88.3432C710.218 87.0754 709.712 85.8044 709.179 84.5447C708.589 83.1484 708.742 81.8083 709.702 80.6894C711.208 78.9327 712.82 77.2655 714.404 75.576C715.908 73.9716 717.307 72.2811 718.054 70.1901C718.356 69.3444 718.341 68.3829 718.442 67.4707C718.46 67.3018 718.34 67.1179 718.225 66.7527Z" fill="#FBA616"/>
</g>
<g clip-path="url(#clip2_201_1157)">
<path d="M517.549 103.197C517.599 103.654 517.654 104.111 517.696 104.569C517.837 106.099 517.887 107.63 517.293 109.084C517.077 109.613 516.728 110.092 516.41 110.574C516.048 111.124 515.768 111.685 515.704 112.362C515.536 114.119 515.3 115.87 515.147 117.628C515.093 118.256 515.188 118.899 515.237 119.533C515.315 120.535 515.192 121.508 514.858 122.453C514.73 122.813 514.768 123.129 514.984 123.455C515.285 123.91 515.633 124.347 515.602 124.953C515.576 125.476 515.401 125.773 514.884 125.911C514.434 126.03 513.973 126.127 513.511 126.176C511.852 126.35 510.19 126.51 508.527 126.652C507.966 126.699 507.397 126.703 506.834 126.676C506.308 126.65 506.04 126.241 506.165 125.729C506.343 125.005 506.846 124.578 507.502 124.303C508.087 124.058 508.686 123.842 509.264 123.581C509.773 123.351 510.045 122.965 509.984 122.367C509.94 121.932 509.897 121.48 509.966 121.055C510.044 120.58 510.194 120.1 510.407 119.668C511.239 117.977 511.924 116.252 511.744 114.319C511.696 113.804 511.537 113.295 511.396 112.792C511.225 112.184 511.153 111.587 511.261 110.952C511.394 110.165 511.169 109.418 510.709 108.786C510.157 108.028 510.052 107.193 510.326 106.368C510.884 104.692 510.569 103.173 509.509 101.86C508.452 100.549 507.978 99.039 507.662 97.4545C507.24 95.34 507.018 93.2028 507.21 91.0413C507.234 90.7755 507.272 90.5092 507.329 90.2488C507.438 89.7492 507.279 89.5682 506.779 89.7156C505.944 89.9614 505.12 90.2469 504.291 90.5114C503.156 90.873 502.009 91.1436 500.804 91.1353C500.115 91.1307 499.425 91.229 498.736 91.2151C498.148 91.2033 497.553 91.14 496.976 91.0249C495.885 90.8073 494.768 90.6377 493.728 90.2648C491.979 89.6379 490.3 88.8588 488.786 87.725C485.191 85.032 482.321 81.6793 479.782 78.0183C478.192 75.7245 476.88 73.2729 475.855 70.6747C474.933 68.337 474.212 65.9432 474.144 63.4079C474.126 62.7518 474.248 62.0875 474.351 61.434C474.428 60.9412 474.7 60.533 475.132 60.272C475.451 60.0797 475.39 59.8413 475.168 59.7089C474.841 59.5141 474.462 59.3136 474.096 59.2957C473.251 59.2542 472.4 59.3593 471.554 59.3299C471.042 59.3121 470.518 59.2069 470.031 59.0447C469.505 58.8697 469.37 58.4752 469.607 57.9668C469.711 57.7444 469.65 57.6273 469.497 57.4984C469.153 57.2096 469.04 56.8674 469.242 56.4444C469.467 55.9735 469.677 55.4957 469.908 55.0283C470.083 54.6757 470.238 54.3003 470.48 53.9985C470.726 53.6925 471.063 53.4568 471.372 53.2051C471.533 53.0742 471.778 53.0144 471.884 52.855C472.218 52.3493 472.692 52.0809 473.251 51.9226C474.875 51.4626 476.505 51.0423 478.218 51.3013C478.986 51.4173 479.753 51.5358 480.516 51.6754C481.113 51.7844 481.63 51.5517 482.144 51.3217C482.279 51.2613 482.38 51.0879 482.458 50.9455C483.194 49.6128 484.251 48.8066 485.833 48.7504C487.554 48.6893 489.224 48.8497 490.768 49.6787C491.575 50.1114 492.156 50.7851 492.623 51.5578C492.921 52.0507 492.942 52.5449 492.482 53.0337C492.615 53.0702 492.7 53.1092 492.786 53.1143C493.757 53.1724 494.256 53.6155 494.245 54.6066C494.238 55.2031 494.482 55.5033 494.93 55.8242C497.067 57.3558 498.609 59.3873 499.774 61.725C500.208 62.5959 500.647 63.4658 501.129 64.3107C501.374 64.7415 501.563 64.7425 501.938 64.4069C503.255 63.2291 504.29 61.8144 505.285 60.3708C507.062 57.7947 508.412 55.0172 509.332 52.0178C509.957 49.9811 510.944 48.1236 512.595 46.7053C514.655 44.9352 517.548 44.7013 520.045 46.0718C521.963 47.1252 523.384 48.6994 524.621 50.4624C525.983 52.4034 527.027 54.5149 527.937 56.6966C528.52 58.0933 529.683 58.4317 530.959 57.6043C532.012 56.9208 532.62 55.8836 533.203 54.8346C534.218 53.0075 535.162 51.1408 536.201 49.3273C537.093 47.7699 538.186 46.3596 539.791 45.4585C541.211 44.6615 542.727 44.2698 544.357 44.6421C545.55 44.9145 546.452 45.6624 547.252 46.5418C548.48 47.891 549.428 49.4374 550.216 51.0655C551.637 54.0004 553.042 56.9461 554.326 59.942C554.787 61.0171 555.633 61.2362 556.528 61.5438C558.905 62.3606 561.292 63.1509 563.49 64.403C565.652 65.6342 567.18 67.4406 568.244 69.6629C569.498 72.2825 570.138 75.0733 570.463 77.938C570.666 79.7356 570.771 81.5444 570.919 83.3482C570.929 83.475 570.946 83.6073 570.921 83.7291C570.875 83.9522 570.801 84.1693 570.738 84.3888C570.495 84.3057 570.203 84.2826 570.019 84.1297C569.093 83.3595 568.561 82.3458 568.336 81.171C567.972 79.2663 567.571 77.3713 566.748 75.6001C566.55 75.1752 566.267 74.7904 566.023 74.3871C565.974 74.3964 565.925 74.4058 565.877 74.4153C565.842 74.5196 565.778 74.6236 565.778 74.7279C565.759 77.9952 565.706 81.2623 566.191 84.5104C566.423 86.0624 566.536 87.6327 566.78 89.1828C567.071 91.0385 567.369 92.8988 567.802 94.7245C568.222 96.5001 568.896 98.2092 569.911 99.7402C570.564 100.727 570.596 101.734 570.232 102.773C569.841 103.891 569.325 104.965 568.926 106.08C568.428 107.474 567.986 108.888 567.535 110.298C567.027 111.885 566.515 113.472 566.047 115.071C565.911 115.537 565.887 116.043 565.865 116.533C565.843 117.026 565.866 117.524 565.908 118.017C565.966 118.696 565.777 119.275 565.29 119.751C564.876 120.156 564.686 120.576 565.043 121.134C565.182 121.352 565.245 121.633 565.288 121.895C565.376 122.435 565.163 122.752 564.621 122.827C563.738 122.947 562.851 123.039 561.964 123.112C560.455 123.236 558.945 123.341 557.435 123.444C556.834 123.485 556.619 123.229 556.713 122.63C556.872 121.615 557.327 121.16 558.442 120.946C558.871 120.864 559.31 120.824 559.745 120.776C560.203 120.726 560.487 120.495 560.624 120.046C560.789 119.507 560.95 118.959 561.186 118.449C561.427 117.928 561.749 117.444 562.048 116.951C562.716 115.847 563.1 114.651 563.3 113.378C563.498 112.108 563.792 110.853 563.974 109.582C564.052 109.037 564.006 108.459 563.924 107.909C563.817 107.199 563.607 106.504 563.459 105.798C563.249 104.798 563.124 103.792 563.242 102.765C563.331 101.993 563.102 101.299 562.743 100.615C562.232 99.6412 561.787 98.6329 561.302 97.6449C561.233 97.5035 561.098 97.394 560.951 97.2179C560.916 97.3633 560.883 97.4298 560.888 97.4929C561.048 99.4232 561.191 101.355 561.386 103.282C561.451 103.935 561.82 104.568 561.607 105.237C561.451 105.724 561.272 106.237 560.97 106.638C559.362 108.771 557.673 110.842 556.091 112.994C554.971 114.517 553.929 116.103 552.947 117.718C552.431 118.567 552.138 119.548 551.705 120.45C551.457 120.968 551.098 121.433 550.851 121.951C550.713 122.239 550.644 122.589 550.65 122.909C550.662 123.625 550.53 123.86 549.825 123.913C547.709 124.07 545.591 124.206 543.473 124.332C542.91 124.365 542.527 123.83 542.542 123.104C542.554 122.514 542.933 121.996 543.508 121.857C544.111 121.711 544.72 121.578 545.335 121.496C545.93 121.416 546.412 121.191 546.764 120.695C547.074 120.258 547.387 119.821 547.719 119.399C548.32 118.635 548.981 117.914 549.532 117.116C550.074 116.33 550.549 115.491 550.984 114.639C551.812 113.017 552.637 111.391 553.364 109.723C553.637 109.096 553.712 108.354 553.746 107.658C553.879 104.983 553.813 102.311 553.493 99.6505C553.439 99.2039 553.284 98.7702 553.218 98.3244C553.061 97.2642 552.836 96.2024 552.812 95.1373C552.782 93.7774 552.124 92.7248 551.462 91.6332C550.797 90.5375 550.194 89.4049 549.566 88.2869C549.525 88.2138 549.499 88.1309 549.475 88.0501C549.299 87.4667 549.113 87.3664 548.585 87.7289C547.75 88.302 546.918 88.8917 546.157 89.5568C545 90.5688 543.937 91.686 542.582 92.4614C540.971 93.3841 539.251 93.9896 537.438 94.3558C534.986 94.8512 532.512 94.875 530.045 94.5782C528.464 94.388 526.901 94.041 525.336 93.7362C524.744 93.621 524.702 93.6383 524.673 94.2534C524.609 95.6088 524.523 96.963 524.45 98.3178C524.404 99.1677 524.632 99.9248 525.152 100.614C525.928 101.643 526.595 102.736 526.993 103.979C527.442 105.382 527.391 106.789 527.135 108.214C526.99 109.02 526.891 109.834 526.795 110.648C526.67 111.712 527.06 112.676 527.403 113.652C527.9 115.064 528.367 116.487 528.863 117.9C529.007 118.311 529.153 118.74 529.393 119.096C529.732 119.598 529.744 120.112 529.581 120.635C529.427 121.129 529.535 121.517 529.781 121.955C530.116 122.551 530.396 123.187 530.618 123.834C530.836 124.467 530.612 124.795 529.943 124.93C529.333 125.053 528.717 125.151 528.1 125.227C526.222 125.458 524.36 125.88 522.448 125.689C521.959 125.64 521.413 125.59 521.256 125.057C521.096 124.518 521.419 124.048 521.858 123.755C522.25 123.493 522.71 123.327 523.15 123.144C523.436 123.024 523.743 122.958 524.034 122.851C524.489 122.685 524.671 122.299 524.735 121.865C524.834 121.195 524.926 120.521 524.964 119.846C525.077 117.879 524.714 115.99 523.964 114.172C523.759 113.676 523.561 113.178 523.339 112.689C523.241 112.474 523.127 112.244 522.959 112.085C522.534 111.679 522.353 111.191 522.294 110.618C522.191 109.607 521.551 108.918 520.849 108.254C520.404 107.833 519.972 107.373 519.647 106.86C519.453 106.552 519.488 106.105 519.398 105.725C519.302 105.325 519.271 104.867 519.048 104.549C518.675 104.017 518.171 103.577 517.722 103.098C517.665 103.131 517.607 103.164 517.549 103.197Z" fill="#FBA616"/>
</g>
<defs>
<clipPath id="clip0_201_1157">
<rect width="113" height="113" fill="white" transform="translate(897.859 33) rotate(11.1546)"/>
</clipPath>
<clipPath id="clip1_201_1157">
<rect width="119" height="119" fill="white" transform="translate(681.707) rotate(5.18964)"/>
</clipPath>
<clipPath id="clip2_201_1157">
<rect width="100" height="100" fill="white" transform="translate(468 38.7129) rotate(-3.60064)"/>
</clipPath>
</defs>
</svg>
