<svg width="38" height="38" viewBox="0 0 38 38" fill="none" xmlns="http://www.w3.org/2000/svg">
<circle cx="19" cy="19" r="18.5" fill="#EC5A33"/>
<path d="M27.7273 11.4606L24.5375 24.523C24.3875 25.1382 23.6932 25.4552 23.124 25.163L19.0898 23.0937L17.1822 26.1946C16.6631 27.0398 15.3497 26.6732 15.3497 25.685V22.2298C15.3497 21.9627 15.4622 21.7079 15.6561 21.5214L23.5181 14.0643C23.5118 13.9711 23.4117 13.8903 23.3117 13.9586L13.9302 20.4463L10.778 18.8306C10.04 18.4515 10.0713 17.3888 10.8342 17.0595L26.3766 10.3296C27.1208 10.0064 27.9215 10.6714 27.7276 11.4606L27.7273 11.4606Z" fill="white"/>
</svg>
