<svg width="37" height="38" viewBox="0 0 37 38" fill="none" xmlns="http://www.w3.org/2000/svg">
<circle cx="18.5" cy="19" r="18.5" fill="#EC5A33"/>
<path d="M19.0494 10.2461H19.0452C14.5186 10.2461 10.8375 13.9282 10.8375 18.4559C10.8375 20.2518 11.4163 21.9163 12.4005 23.2678L11.3773 26.3178L14.5329 25.309C15.8311 26.169 17.3797 26.6656 19.0494 26.6656C23.576 26.6656 27.2571 22.9825 27.2571 18.4559C27.2571 13.9292 23.576 10.2461 19.0494 10.2461ZM23.8264 21.8393C23.6284 22.3986 22.8423 22.8625 22.2152 22.9979C21.7863 23.0893 21.226 23.1621 19.3398 22.3801C16.9271 21.3806 15.3734 18.929 15.2523 18.7699C15.1364 18.6108 14.2774 17.4717 14.2774 16.2936C14.2774 15.1155 14.8757 14.5419 15.1169 14.2956C15.3149 14.0934 15.6423 14.001 15.9563 14.001C16.0579 14.001 16.1492 14.0062 16.2313 14.0103C16.4725 14.0205 16.5936 14.0349 16.7527 14.4156C16.9507 14.8928 17.4331 16.0709 17.4905 16.192C17.549 16.3131 17.6075 16.4773 17.5254 16.6364C17.4484 16.8006 17.3807 16.8734 17.2596 17.013C17.1385 17.1526 17.0236 17.2593 16.9025 17.4091C16.7917 17.5395 16.6665 17.679 16.806 17.9202C16.9456 18.1562 17.4279 18.9433 18.1381 19.5755C19.0545 20.3913 19.7975 20.652 20.0633 20.7628C20.2613 20.8449 20.4974 20.8254 20.642 20.6715C20.8257 20.4734 21.0525 20.145 21.2834 19.8218C21.4476 19.5898 21.6549 19.5611 21.8725 19.6432C22.0942 19.7202 23.2671 20.3 23.5083 20.4201C23.7494 20.5412 23.9085 20.5986 23.967 20.7002C24.0245 20.8018 24.0245 21.279 23.8264 21.8393Z" fill="white"/>
</svg>
