<?xml version="1.0" standalone="no"?>
<!DOCTYPE svg PUBLIC "-//W3C//DTD SVG 20010904//EN"
 "http://www.w3.org/TR/2001/REC-SVG-20010904/DTD/svg10.dtd">
<svg version="1.0" xmlns="http://www.w3.org/2000/svg"
 width="260.000000pt" height="260.000000pt" viewBox="0 0 260.000000 260.000000"
 preserveAspectRatio="xMidYMid meet">
<metadata>
Created by potrace 1.14, written by Peter Selinger 2001-2017
</metadata>
<g transform="translate(0.000000,260.000000) scale(0.100000,-0.100000)"
fill="#000000" stroke="none">
<path d="M1169 2596 c-2 -2 -24 -6 -49 -9 -177 -22 -394 -107 -560 -220 -41
-29 -118 -95 -170 -147 -90 -89 -190 -216 -190 -239 0 -6 -4 -11 -8 -11 -14 0
-108 -208 -136 -300 -40 -135 -55 -249 -51 -400 4 -147 7 -166 36 -284 130
-515 560 -901 1089 -975 64 -9 336 -7 375 2 11 3 51 13 90 22 243 56 445 172
633 361 190 193 320 450 360 713 9 59 8 334 -1 383 -52 283 -154 491 -338 692
-86 94 -111 115 -233 199 -118 81 -330 171 -447 191 -19 3 -45 8 -59 12 -27 6
-335 15 -341 10z"/>
</g>
</svg>
